<svg width="22" height="22" viewBox="0 0 22 22" fill="none" xmlns="http://www.w3.org/2000/svg">
<path fill-rule="evenodd" clip-rule="evenodd" d="M11 22C17.0751 22 22 17.0751 22 11C22 4.92487 17.0751 0 11 0C4.92487 0 0 4.92487 0 11C0 17.0751 4.92487 22 11 22ZM9.81773 15.2254L16.734 8.08644C17.0887 7.72034 17.0887 7.14068 16.734 6.77458C16.3793 6.40847 15.8177 6.40847 15.4631 6.77458L9.18227 13.2576L6.53695 10.5271C6.18227 10.161 5.62069 10.161 5.26601 10.5271C4.91133 10.8932 4.91133 11.4729 5.26601 11.839L8.5468 15.2254C8.90148 15.5915 9.46305 15.5915 9.81773 15.2254Z" fill="#67C1BF"/>
</svg>
